<svg width="470" height="567" viewBox="0 0 470 567" fill="none" xmlns="http://www.w3.org/2000/svg">
    <mask id="x2thyr6fib" fill="#fff">
        <path fill-rule="evenodd" clip-rule="evenodd" d="M234.502 52c22.091 0 40-17.909 40-40 0-6.04 4.314-12 10.355-12H452c9.941 0 18 8.059 18 18v531c0 9.941-8.059 18-18 18H18c-9.941 0-18-8.059-18-18V18C0 8.059 8.059 0 18 0h166.147c6.041 0 10.355 5.96 10.355 12 0 22.091 17.909 40 40 40z"/>
    </mask>
    <path fill-rule="evenodd" clip-rule="evenodd" d="M234.502 52c22.091 0 40-17.909 40-40 0-6.04 4.314-12 10.355-12H452c9.941 0 18 8.059 18 18v531c0 9.941-8.059 18-18 18H18c-9.941 0-18-8.059-18-18V18C0 8.059 8.059 0 18 0h166.147c6.041 0 10.355 5.96 10.355 12 0 22.091 17.909 40 40 40z" fill="#0B0819"/>
    <path d="M273.502 12c0 21.54-17.461 39-39 39v2c22.644 0 41-18.356 41-41h-2zm11.355-11H452v-2H284.857v2zM469 18v531h2V18h-2zm-17 548H18v2h434v-2zM1 549V18h-2v531h2zM18 1h166.147v-2H18v2zm216.502 50c-21.539 0-39-17.46-39-39h-2c0 22.644 18.356 41 41 41v-2zM184.147 1c5.309 0 9.355 5.313 9.355 11h2c0-6.394-4.582-13-11.355-13v2zM1 18C1 8.611 8.611 1 18 1v-2C7.507-1-1 7.507-1 18h2zm17 548c-9.389 0-17-7.611-17-17h-2c0 10.493 8.507 19 19 19v-2zm451-17c0 9.389-7.611 17-17 17v2c10.493 0 19-8.507 19-19h-2zM452 1c9.389 0 17 7.611 17 17h2c0-10.493-8.507-19-19-19v2zM275.502 12c0-5.687 4.046-11 9.355-11v-2c-6.773 0-11.355 6.606-11.355 13h2z" fill="url(#jfxhz9topa)" mask="url(#x2thyr6fib)"/>
    <defs>
        <linearGradient id="jfxhz9topa" x1="235" y1="0" x2="235" y2="567" gradientUnits="userSpaceOnUse">
            <stop stop-color="#46425E"/>
            <stop offset="1" stop-opacity="0"/>
        </linearGradient>
    </defs>
</svg>
